<svg xmlns="http://www.w3.org/2000/svg" viewBox="0 0 36 38" width="36" height="38">
	<style>
		tspan { white-space:pre }
		.shp0 { fill: #ffffff } 
	</style>
	<g id="0.8.0 - Home">
		<g id="Main Ruling">
			<g id="thumbs 2">
				<path id="Rectangle 9 copy 2" class="shp0" d="M27.57 20.57C23.33 26.82 21.83 28.61 22.08 32.22C22.33 35.84 21.61 36.84 19.91 37.01C18.2 37.19 14.99 36.26 14.43 30.34C14.18 27.78 16.01 22.73 16.01 22.73C16.01 22.73 4.36 22.72 3.23 22.72C1.42 22.72 0 21.95 0 19.48C0 17.16 2.56 16.46 2.56 16.46C2.56 16.46 0.92 15.82 0.92 13.87C0.92 11.9 2.62 11.01 3.74 11.01C3.05 10.67 2.07 10 2.29 8.31C2.5 6.62 3.7 6.01 4.89 5.65C4.12 5.17 3.56 3.86 3.99 2.85C4.56 1.5 6.08 0 9.48 0C13.6 0 24.92 0 25.38 0C26.58 0 27.47 0.55 27.66 1.23C27.66 2.62 27.66 19.82 27.66 19.82C27.66 19.82 27.66 20.42 27.57 20.57ZM28.78 0L35 0L35 21.78L28.78 21.78L28.78 0ZM29.78 0L36 0L36 21.78L29.78 21.78L29.78 0Z" />
			</g>
		</g>
	</g>
</svg>