<svg xmlns="http://www.w3.org/2000/svg" viewBox="0 0 36 37" width="36" height="37">
	<style>
		tspan { white-space:pre }
		.shp0 { fill: #ffffff } 
	</style>
	<g id="0.8.0 - Home">
		<g id="Main Ruling">
			<g id="thumbs 2">
				<path id="Rectangle 9 copy" class="shp0" d="M8.43 16.44C12.67 10.2 14.17 8.42 13.92 4.8C13.67 1.19 14.39 0.2 16.09 0.02C17.8 -0.16 21.01 0.77 21.57 6.69C21.82 9.25 19.99 14.29 19.99 14.29C19.99 14.29 31.64 14.3 32.77 14.3C34.58 14.3 36 15.07 36 17.54C36 19.86 33.44 20.55 33.44 20.55C33.44 20.55 35.08 21.19 35.08 23.14C35.08 25.11 33.38 26 32.26 26C32.95 26.34 33.93 27.01 33.71 28.7C33.5 30.38 32.3 30.99 31.11 31.36C31.88 31.83 32.44 33.14 32.01 34.15C31.44 35.51 29.92 37 26.52 37C22.4 37 11.08 37 10.62 37C9.42 37 8.53 36.45 8.34 35.77C8.34 34.38 8.34 17.2 8.34 17.2C8.34 17.2 8.34 16.6 8.43 16.44ZM1 15.25L7.22 15.25L7.22 37L1 37L1 15.25ZM0 15.25L6.22 15.25L6.22 37L0 37L0 15.25Z" />
			</g>
		</g>
	</g>
</svg>